# xmcd CD database file
#
# Track frame offsets:
#	150
#	19647
#	55133
#	78995
#	96654
#	114874
#	133561
#	147980
#	168163
#	180891
#
# Disc length: 2618 seconds
#
# Revision: 0
# Processed by: cddbd v1.5.2PL0 Copyright (c) Steve Scherf et al.
# Submitted via: CDex 1.70beta2
#
DISCID=760a380a
DTITLE=Ileana din Vilcele - Pe muntele Sionului
DYEAR=1900
DGENRE=Country
TTITLE0=1-Pe muntele Sionului
TTITLE1=2-As vrea
TTITLE2=3-Auzi Doamne
TTITLE3=4-Pe drumul vietii
TTITLE4=5-Biblia
TTITLE5=6-Cind Isus trecea
TTITLE6=7-Alearga la Isus
TTITLE7=8-Invierea fiicei lui Iair
TTITLE8=9-Domnul e mintuirea
TTITLE9=10-In Isus eu aflu totul
EXTD=
EXTT0=
EXTT1=
EXTT2=
EXTT3=
EXTT4=
EXTT5=
EXTT6=
EXTT7=
EXTT8=
EXTT9=
PLAYORDER=
